# xmcd
#
# Track frame offsets: 
#        150
#        15876
#        38743
#        55967
#        81502
#        97110
#        112133
#        128243
#        145906
#        161096
#
# Disc length: 2484 seconds
#
# Revision: 0
# Processed by: cddbd v1.5.2PL0 Copyright (c) Steve Scherf et al.
# Submitted via: ExactAudioCopy v1.3
#
DISCID=8709b20a
DTITLE=Dennis Jones - Passion For The Blues
DYEAR=2006
DGENRE=Texas Blues, Electric Blues
TTITLE0=No Mo'
TTITLE1=Super Deluxe
TTITLE2=When I Die
TTITLE3=Passion For The Blues
TTITLE4=Graffiti
TTITLE5=You're Wrong
TTITLE6=I Just Want To Make Love To You
TTITLE7=Something Good
TTITLE8=Automatic Love
TTITLE9=Slam Jam
EXTD=
EXTT0=
EXTT1=
EXTT2=
EXTT3=
EXTT4=
EXTT5=
EXTT6=
EXTT7=
EXTT8=
EXTT9=
PLAYORDER=
